<?xml version="1.0"?>
<svg version="1.1" xmlns="http://www.w3.org/2000/svg" width="330" height="70" style="border: dashed 2px #aaa"><path fill="#ffffff" d="M29.609375,58.984375l-6.0546875,0l0-23.515625l-7.75390625,0l0-5.0390625l21.5625,0l0,5.0390625l-7.75390625,0l0,23.515625z M48.7845703125,48.02734375q0,3.2421875,1.064453125,4.90234375t3.466796875,1.66015625q2.3828125,0,3.427734375-1.650390625t1.044921875-4.912109375q0-3.2421875-1.0546875-4.86328125t-3.45703125-1.62109375q-2.3828125,0-3.4375,1.611328125t-1.0546875,4.873046875z M63.8822265625,48.02734375q0,5.33203125-2.8125,8.33984375t-7.83203125,3.0078125q-3.14453125,0-5.546875-1.376953125t-3.69140625-3.955078125t-1.2890625-6.015625q0-5.3515625,2.79296875-8.3203125t7.8515625-2.96875q3.14453125,0,5.546875,1.3671875t3.69140625,3.92578125t1.2890625,5.99609375z M83.545703125,59.375q-3.84765625,0-6.03515625-2.79296875l-0.3125,0q0.3125,2.734375,0.3125,3.1640625l0,8.84765625l-5.95703125,0l0-31.4453125l4.84375,0l0.83984375,2.83203125l0.2734375,0q2.08984375-3.2421875,6.19140625-3.2421875q3.8671875,0,6.0546875,2.98828125t2.1875,8.30078125q0,3.49609375-1.025390625,6.07421875t-2.919921875,3.92578125t-4.453125,1.34765625z M81.787890625,41.50390625q-2.20703125,0-3.22265625,1.357421875t-1.0546875,4.482421875l0,0.64453125q0,3.515625,1.044921875,5.0390625t3.310546875,1.5234375q4.00390625,0,4.00390625-6.6015625q0-3.22265625-0.986328125-4.833984375t-3.095703125-1.611328125z"/><path fill="#ffffff" d="M113.5509765625,45.1318359375l2.44140625,0q3.5888671875,0,5.2978515625-1.1962890625t1.708984375-3.759765625q0-2.5390625-1.74560546875-3.61328125t-5.40771484375-1.07421875l-2.294921875,0l0,9.6435546875z M113.5509765625,51.2841796875l0,13.6962890625l-7.568359375,0l0-35.693359375l10.400390625,0q7.275390625,0,10.7666015625,2.64892578125t3.4912109375,8.04443359375q0,3.1494140625-1.7333984375,5.60302734375t-4.9072265625,3.84521484375q8.056640625,12.0361328125,10.498046875,15.5517578125l-8.3984375,0l-8.5205078125-13.6962890625l-4.0283203125,0z M159.17524414063,64.98046875l-1.4404296875-3.7109375l-0.1953125,0q-1.8798828125,2.3681640625-3.86962890625,3.28369140625t-5.18798828125,0.91552734375q-3.9306640625,0-6.18896484375-2.24609375t-2.25830078125-6.396484375q0-4.345703125,3.03955078125-6.40869140625t9.16748046875-2.28271484375l4.736328125-0.146484375l0-1.1962890625q0-4.150390625-4.248046875-4.150390625q-3.271484375,0-7.6904296875,1.9775390625l-2.4658203125-5.029296875q4.7119140625-2.4658203125,10.44921875-2.4658203125q5.4931640625,0,8.4228515625,2.392578125t2.9296875,7.275390625l0,18.1884765625l-5.2001953125,0z M156.97797851563,52.333984375l-2.880859375,0.09765625q-3.2470703125,0.09765625-4.833984375,1.171875t-1.5869140625,3.271484375q0,3.1494140625,3.61328125,3.1494140625q2.587890625,0,4.13818359375-1.4892578125t1.55029296875-3.955078125l0-2.24609375z M186.97724609375,59.5361328125q1.953125,0,4.6875-0.8544921875l0,5.5419921875q-2.783203125,1.2451171875-6.8359375,1.2451171875q-4.4677734375,0-6.50634765625-2.25830078125t-2.03857421875-6.77490234375l0-13.1591796875l-3.564453125,0l0-3.1494140625l4.1015625-2.490234375l2.1484375-5.76171875l4.7607421875,0l0,5.810546875l7.6416015625,0l0,5.5908203125l-7.6416015625,0l0,13.1591796875q0,1.5869140625,0.89111328125,2.34375t2.35595703125,0.7568359375z M211.92280273438,42.470703125q-2.3681640625,0-3.7109375,1.50146484375t-1.5380859375,4.26025390625l10.44921875,0q-0.048828125-2.7587890625-1.4404296875-4.26025390625t-3.759765625-1.50146484375z M212.97260742188,65.46875q-6.591796875,0-10.302734375-3.6376953125t-3.7109375-10.302734375q0-6.8603515625,3.43017578125-10.60791015625t9.48486328125-3.74755859375q5.7861328125,0,9.0087890625,3.2958984375t3.22265625,9.1064453125l0,3.61328125l-17.6025390625,0q0.1220703125,3.173828125,1.8798828125,4.9560546875t4.931640625,1.7822265625q2.4658203125,0,4.6630859375-0.5126953125t4.58984375-1.6357421875l0,5.76171875q-1.953125,0.9765625-4.1748046875,1.45263671875t-5.419921875,0.47607421875z M242.239453125,65.46875q-4.8095703125,0-7.55615234375-3.7353515625t-2.74658203125-10.3515625q0-6.7138671875,2.79541015625-10.46142578125t7.70263671875-3.74755859375q5.1513671875,0,7.861328125,4.00390625l0.244140625,0q-0.5615234375-3.0517578125-0.5615234375-5.4443359375l0-8.740234375l7.470703125,0l0,37.98828125l-5.712890625,0l-1.4404296875-3.5400390625l-0.3173828125,0q-2.5390625,4.0283203125-7.7392578125,4.0283203125z M244.8517578125,59.5361328125q2.8564453125,0,4.18701171875-1.66015625t1.45263671875-5.6396484375l0-0.8056640625q0-4.39453125-1.35498046875-6.298828125t-4.40673828125-1.904296875q-2.490234375,0-3.86962890625,2.11181640625t-1.37939453125,6.14013671875t1.3916015625,6.04248046875t3.9794921875,2.01416015625z M300.79755859375,64.98046875l-8.59375-28.0029296875l-0.2197265625,0q0.4638671875,8.544921875,0.4638671875,11.4013671875l0,16.6015625l-6.7626953125,0l0-35.693359375l10.302734375,0l8.447265625,27.294921875l0.146484375,0l8.9599609375-27.294921875l10.302734375,0l0,35.693359375l-7.0556640625,0l0-16.89453125q0-1.1962890625,0.03662109375-2.7587890625t0.32958984375-8.30078125l-0.2197265625,0l-9.2041015625,27.9541015625l-6.93359375,0z M341.61225585938,51.2841796875q0,4.052734375,1.33056640625,6.1279296875t4.33349609375,2.0751953125q2.978515625,0,4.28466796875-2.06298828125t1.30615234375-6.14013671875q0-4.052734375-1.318359375-6.0791015625t-4.3212890625-2.0263671875q-2.978515625,0-4.296875,2.01416015625t-1.318359375,6.09130859375z M360.48432617188,51.2841796875q0,6.6650390625-3.515625,10.4248046875t-9.7900390625,3.759765625q-3.9306640625,0-6.93359375-1.72119140625t-4.6142578125-4.94384765625t-1.611328125-7.51953125q0-6.689453125,3.4912109375-10.400390625t9.814453125-3.7109375q3.9306640625,0,6.93359375,1.708984375t4.6142578125,4.9072265625t1.611328125,7.4951171875z M376.567578125,64.98046875l-10.400390625-27.294921875l7.7880859375,0l5.2734375,15.5517578125q0.87890625,2.9541015625,1.0986328125,5.5908203125l0.146484375,0q0.1220703125-2.34375,1.0986328125-5.5908203125l5.2490234375-15.5517578125l7.7880859375,0l-10.400390625,27.294921875l-7.6416015625,0z M401.63520507812,30.6298828125q0-3.6376953125,4.052734375-3.6376953125t4.052734375,3.6376953125q0,1.7333984375-1.01318359375,2.69775390625t-3.03955078125,0.96435546875q-4.052734375,0-4.052734375-3.662109375z M409.39887695312,64.98046875l-7.4462890625,0l0-27.294921875l7.4462890625,0l0,27.294921875z M431.95185546875,42.470703125q-2.3681640625,0-3.7109375,1.50146484375t-1.5380859375,4.26025390625l10.44921875,0q-0.048828125-2.7587890625-1.4404296875-4.26025390625t-3.759765625-1.50146484375z M433.00166015625,65.46875q-6.591796875,0-10.302734375-3.6376953125t-3.7109375-10.302734375q0-6.8603515625,3.43017578125-10.60791015625t9.48486328125-3.74755859375q5.7861328125,0,9.0087890625,3.2958984375t3.22265625,9.1064453125l0,3.61328125l-17.6025390625,0q0.1220703125,3.173828125,1.8798828125,4.9560546875t4.931640625,1.7822265625q2.4658203125,0,4.6630859375-0.5126953125t4.58984375-1.6357421875l0,5.76171875q-1.953125,0.9765625-4.1748046875,1.45263671875t-5.419921875,0.47607421875z M472.66889648438,56.875q0,4.19921875-2.91748046875,6.396484375t-8.72802734375,2.197265625q-2.978515625,0-5.078125-0.40283203125t-3.9306640625-1.18408203125l0-6.15234375q2.0751953125,0.9765625,4.67529296875,1.6357421875t4.57763671875,0.6591796875q4.052734375,0,4.052734375-2.34375q0-0.87890625-0.537109375-1.42822265625t-1.85546875-1.2451171875t-3.515625-1.62353515625q-3.1494140625-1.318359375-4.62646484375-2.44140625t-2.1484375-2.57568359375t-0.67138671875-3.57666015625q0-3.6376953125,2.81982421875-5.62744140625t7.99560546875-1.98974609375q4.931640625,0,9.5947265625,2.1484375l-2.24609375,5.37109375q-2.05078125-0.87890625-3.8330078125-1.4404296875t-3.6376953125-0.5615234375q-3.2958984375,0-3.2958984375,1.7822265625q0,1.0009765625,1.06201171875,1.7333984375t4.65087890625,2.1728515625q3.1982421875,1.2939453125,4.6875,2.4169921875t2.197265625,2.587890625t0.7080078125,3.4912109375z"/></svg>
