<?xml version="1.0"?>
<svg version="1.1" xmlns="http://www.w3.org/2000/svg" width="376" height="63" style=""><path fill="#e31919" d="M25.95703125,49.48828125l-4.541015625,0l0-17.63671875l-5.8154296875,0l0-3.779296875l16.171875,0l0,3.779296875l-5.8154296875,0l0,17.63671875z M40.338427734375,41.2705078125q0,2.431640625,0.79833984375,3.6767578125t2.60009765625,1.2451171875q1.787109375,0,2.57080078125-1.23779296875t0.78369140625-3.68408203125q0-2.431640625-0.791015625-3.6474609375t-2.5927734375-1.2158203125q-1.787109375,0-2.578125,1.20849609375t-0.791015625,3.65478515625z M51.661669921875,41.2705078125q0,3.9990234375-2.109375,6.2548828125t-5.8740234375,2.255859375q-2.3583984375,0-4.16015625-1.03271484375t-2.7685546875-2.96630859375t-0.966796875-4.51171875q0-4.013671875,2.0947265625-6.240234375t5.888671875-2.2265625q2.3583984375,0,4.16015625,1.025390625t2.7685546875,2.9443359375t0.966796875,4.4970703125z M66.40927734375,49.78125q-2.8857421875,0-4.5263671875-2.0947265625l-0.234375,0q0.234375,2.05078125,0.234375,2.373046875l0,6.6357421875l-4.4677734375,0l0-23.583984375l3.6328125,0l0.6298828125,2.1240234375l0.205078125,0q1.5673828125-2.431640625,4.6435546875-2.431640625q2.900390625,0,4.541015625,2.2412109375t1.640625,6.2255859375q0,2.6220703125-0.76904296875,4.5556640625t-2.18994140625,2.9443359375t-3.33984375,1.0107421875z M65.09091796875,36.3779296875q-1.6552734375,0-2.4169921875,1.01806640625t-0.791015625,3.36181640625l0,0.4833984375q0,2.63671875,0.78369140625,3.779296875t2.48291015625,1.142578125q3.0029296875,0,3.0029296875-4.951171875q0-2.4169921875-0.73974609375-3.62548828125t-2.32177734375-1.20849609375z M93.2091796875,37.5791015625l1.46484375,0q2.1533203125,0,3.1787109375-0.7177734375t1.025390625-2.255859375q0-1.5234375-1.04736328125-2.16796875t-3.24462890625-0.64453125l-1.376953125,0l0,5.7861328125z M93.2091796875,41.2705078125l0,8.2177734375l-4.541015625,0l0-21.416015625l6.240234375,0q4.365234375,0,6.4599609375,1.58935546875t2.0947265625,4.82666015625q0,1.8896484375-1.0400390625,3.36181640625t-2.9443359375,2.30712890625q4.833984375,7.2216796875,6.298828125,9.3310546875l-5.0390625,0l-5.1123046875-8.2177734375l-2.4169921875,0z M120.58374023438,49.48828125l-0.8642578125-2.2265625l-0.1171875,0q-1.1279296875,1.4208984375-2.32177734375,1.97021484375t-3.11279296875,0.54931640625q-2.3583984375,0-3.71337890625-1.34765625t-1.35498046875-3.837890625q0-2.607421875,1.82373046875-3.84521484375t5.50048828125-1.36962890625l2.841796875-0.087890625l0-0.7177734375q0-2.490234375-2.548828125-2.490234375q-1.962890625,0-4.6142578125,1.1865234375l-1.4794921875-3.017578125q2.8271484375-1.4794921875,6.26953125-1.4794921875q3.2958984375,0,5.0537109375,1.435546875t1.7578125,4.365234375l0,10.9130859375l-3.1201171875,0z M119.26538085938,41.900390625l-1.728515625,0.05859375q-1.9482421875,0.05859375-2.900390625,0.703125t-0.9521484375,1.962890625q0,1.8896484375,2.16796875,1.8896484375q1.552734375,0,2.48291015625-0.8935546875t0.93017578125-2.373046875l0-1.34765625z M137.26494140625,46.2216796875q1.171875,0,2.8125-0.5126953125l0,3.3251953125q-1.669921875,0.7470703125-4.1015625,0.7470703125q-2.6806640625,0-3.90380859375-1.35498046875t-1.22314453125-4.06494140625l0-7.8955078125l-2.138671875,0l0-1.8896484375l2.4609375-1.494140625l1.2890625-3.45703125l2.8564453125,0l0,3.486328125l4.5849609375,0l0,3.3544921875l-4.5849609375,0l0,7.8955078125q0,0.9521484375,0.53466796875,1.40625t1.41357421875,0.4541015625z M152.23227539063,35.982421875q-1.4208984375,0-2.2265625,0.90087890625t-0.9228515625,2.55615234375l6.26953125,0q-0.029296875-1.6552734375-0.8642578125-2.55615234375t-2.255859375-0.90087890625z M152.86215820313,49.78125q-3.955078125,0-6.181640625-2.1826171875t-2.2265625-6.181640625q0-4.1162109375,2.05810546875-6.36474609375t5.69091796875-2.24853515625q3.4716796875,0,5.4052734375,1.9775390625t1.93359375,5.4638671875l0,2.16796875l-10.5615234375,0q0.0732421875,1.904296875,1.1279296875,2.9736328125t2.958984375,1.0693359375q1.4794921875,0,2.7978515625-0.3076171875t2.75390625-0.9814453125l0,3.45703125q-1.171875,0.5859375-2.5048828125,0.87158203125t-3.251953125,0.28564453125z M170.422265625,49.78125q-2.8857421875,0-4.53369140625-2.2412109375t-1.64794921875-6.2109375q0-4.0283203125,1.67724609375-6.27685546875t4.62158203125-2.24853515625q3.0908203125,0,4.716796875,2.40234375l0.146484375,0q-0.3369140625-1.8310546875-0.3369140625-3.2666015625l0-5.244140625l4.482421875,0l0,22.79296875l-3.427734375,0l-0.8642578125-2.1240234375l-0.1904296875,0q-1.5234375,2.4169921875-4.6435546875,2.4169921875z M171.9896484375,46.2216796875q1.7138671875,0,2.51220703125-0.99609375t0.87158203125-3.3837890625l0-0.4833984375q0-2.63671875-0.81298828125-3.779296875t-2.64404296875-1.142578125q-1.494140625,0-2.32177734375,1.26708984375t-0.82763671875,3.68408203125t0.8349609375,3.62548828125t2.3876953125,1.20849609375z"/><path fill="#122fe6" d="M206.58344726562,58.482421875l-7.734375-25.20263671875l-0.19775390625,0q0.41748046875,7.6904296875,0.41748046875,10.26123046875l0,14.94140625l-6.08642578125,0l0-32.1240234375l9.2724609375,0l7.6025390625,24.5654296875l0.1318359375,0l8.06396484375-24.5654296875l9.2724609375,0l0,32.1240234375l-6.35009765625,0l0-15.205078125q0-1.07666015625,0.032958984375-2.48291015625t0.296630859375-7.470703125l-0.19775390625,0l-8.28369140625,25.15869140625l-6.240234375,0z M243.31667480469,46.15576171875q0,3.6474609375,1.197509765625,5.51513671875t3.900146484375,1.86767578125q2.6806640625,0,3.856201171875-1.856689453125t1.175537109375-5.526123046875q0-3.6474609375-1.1865234375-5.47119140625t-3.88916015625-1.82373046875q-2.6806640625,0-3.8671875,1.812744140625t-1.1865234375,5.482177734375z M260.30153808594,46.15576171875q0,5.99853515625-3.1640625,9.38232421875t-8.81103515625,3.3837890625q-3.53759765625,0-6.240234375-1.549072265625t-4.15283203125-4.449462890625t-1.4501953125-6.767578125q0-6.0205078125,3.14208984375-9.3603515625t8.8330078125-3.33984375q3.53759765625,0,6.240234375,1.5380859375t4.15283203125,4.41650390625t1.4501953125,6.74560546875z M274.77646484375,58.482421875l-9.3603515625-24.5654296875l7.00927734375,0l4.74609375,13.99658203125q0.791015625,2.65869140625,0.98876953125,5.03173828125l0.1318359375,0q0.10986328125-2.109375,0.98876953125-5.03173828125l4.72412109375-13.99658203125l7.00927734375,0l-9.3603515625,24.5654296875l-6.87744140625,0z M297.33732910156,27.56689453125q0-3.27392578125,3.6474609375-3.27392578125t3.6474609375,3.27392578125q0,1.56005859375-0.911865234375,2.427978515625t-2.735595703125,0.867919921875q-3.6474609375,0-3.6474609375-3.2958984375z M304.32463378906,58.482421875l-6.70166015625,0l0-24.5654296875l6.70166015625,0l0,24.5654296875z M324.62231445312,38.2236328125q-2.13134765625,0-3.33984375,1.351318359375t-1.38427734375,3.834228515625l9.404296875,0q-0.0439453125-2.48291015625-1.29638671875-3.834228515625t-3.3837890625-1.351318359375z M325.56713867188,58.921875q-5.9326171875,0-9.2724609375-3.27392578125t-3.33984375-9.2724609375q0-6.17431640625,3.087158203125-9.547119140625t8.536376953125-3.372802734375q5.20751953125,0,8.10791015625,2.96630859375t2.900390625,8.19580078125l0,3.251953125l-15.84228515625,0q0.10986328125,2.8564453125,1.69189453125,4.46044921875t4.4384765625,1.60400390625q2.21923828125,0,4.19677734375-0.46142578125t4.130859375-1.47216796875l0,5.185546875q-1.7578125,0.87890625-3.75732421875,1.307373046875t-4.8779296875,0.428466796875z M361.26765136718,51.1875q0,3.779296875-2.625732421875,5.7568359375t-7.855224609375,1.9775390625q-2.6806640625,0-4.5703125-0.362548828125t-3.53759765625-1.065673828125l0-5.537109375q1.86767578125,0.87890625,4.207763671875,1.47216796875t4.119873046875,0.59326171875q3.6474609375,0,3.6474609375-2.109375q0-0.791015625-0.4833984375-1.285400390625t-1.669921875-1.12060546875t-3.1640625-1.461181640625q-2.83447265625-1.1865234375-4.163818359375-2.197265625t-1.93359375-2.318115234375t-0.604248046875-3.218994140625q0-3.27392578125,2.537841796875-5.064697265625t7.196044921875-1.790771484375q4.4384765625,0,8.63525390625,1.93359375l-2.021484375,4.833984375q-1.845703125-0.791015625-3.44970703125-1.29638671875t-3.27392578125-0.50537109375q-2.96630859375,0-2.96630859375,1.60400390625q0,0.90087890625,0.955810546875,1.56005859375t4.185791015625,1.95556640625q2.87841796875,1.16455078125,4.21875,2.17529296875t1.9775390625,2.3291015625t0.63720703125,3.14208984375z"/></svg>
