<?xml version="1.0"?>
<svg version="1.1" xmlns="http://www.w3.org/2000/svg" width="330" height="70" style=""><path fill="#ffffff" d="M25.591796875,52.388671875l-4.3896484375,0l0-17.048828125l-5.62158203125,0l0-3.6533203125l15.6328125,0l0,3.6533203125l-5.62158203125,0l0,17.048828125z M39.493813476563,44.44482421875q0,2.3505859375,0.771728515625,3.55419921875t2.513427734375,1.20361328125q1.7275390625,0,2.485107421875-1.196533203125t0.757568359375-3.561279296875q0-2.3505859375-0.7646484375-3.52587890625t-2.50634765625-1.17529296875q-1.7275390625,0-2.4921875,1.168212890625t-0.7646484375,3.532958984375z M50.439614257813,44.44482421875q0,3.86572265625-2.0390625,6.04638671875t-5.67822265625,2.1806640625q-2.27978515625,0-4.021484375-0.998291015625t-2.67626953125-2.867431640625t-0.9345703125-4.361328125q0-3.8798828125,2.02490234375-6.0322265625t5.6923828125-2.15234375q2.27978515625,0,4.021484375,0.9912109375t2.67626953125,2.84619140625t0.9345703125,4.34716796875z M64.695634765625,52.671875q-2.78955078125,0-4.37548828125-2.02490234375l-0.2265625,0q0.2265625,1.982421875,0.2265625,2.2939453125l0,6.41455078125l-4.31884765625,0l0-22.7978515625l3.51171875,0l0.60888671875,2.05322265625l0.1982421875,0q1.51513671875-2.3505859375,4.48876953125-2.3505859375q2.8037109375,0,4.3896484375,2.16650390625t1.5859375,6.01806640625q0,2.53466796875-0.743408203125,4.40380859375t-2.116943359375,2.84619140625t-3.228515625,0.97705078125z M63.421220703125,39.71533203125q-1.60009765625,0-2.33642578125,0.984130859375t-0.7646484375,3.249755859375l0,0.46728515625q0,2.548828125,0.757568359375,3.6533203125t2.400146484375,1.1044921875q2.90283203125,0,2.90283203125-4.7861328125q0-2.33642578125-0.715087890625-3.504638671875t-2.244384765625-1.168212890625z"/><path fill="#ffffff" d="M84.869624023437,39.86328125l1.171875,0q1.72265625,0,2.54296875-0.57421875t0.8203125-1.8046875q0-1.21875-0.837890625-1.734375t-2.595703125-0.515625l-1.1015625,0l0,4.62890625z M84.869624023437,42.81640625l0,6.57421875l-3.6328125,0l0-17.1328125l4.9921875,0q3.4921875,0,5.16796875,1.271484375t1.67578125,3.861328125q0,1.51171875-0.83203125,2.689453125t-2.35546875,1.845703125q3.8671875,5.77734375,5.0390625,7.46484375l-4.03125,0l-4.08984375-6.57421875l-1.93359375,0z M106.76927246094,49.390625l-0.69140625-1.78125l-0.09375,0q-0.90234375,1.13671875-1.857421875,1.576171875t-2.490234375,0.439453125q-1.88671875,0-2.970703125-1.078125t-1.083984375-3.0703125q0-2.0859375,1.458984375-3.076171875t4.400390625-1.095703125l2.2734375-0.0703125l0-0.57421875q0-1.9921875-2.0390625-1.9921875q-1.5703125,0-3.69140625,0.94921875l-1.18359375-2.4140625q2.26171875-1.18359375,5.015625-1.18359375q2.63671875,0,4.04296875,1.1484375t1.40625,3.4921875l0,8.73046875l-2.49609375,0z M105.71458496094,43.3203125l-1.3828125,0.046875q-1.55859375,0.046875-2.3203125,0.5625t-0.76171875,1.5703125q0,1.51171875,1.734375,1.51171875q1.2421875,0,1.986328125-0.71484375t0.744140625-1.8984375l0-1.078125z M120.11423339844,46.77734375q0.9375,0,2.25-0.41015625l0,2.66015625q-1.3359375,0.59765625-3.28125,0.59765625q-2.14453125,0-3.123046875-1.083984375t-0.978515625-3.251953125l0-6.31640625l-1.7109375,0l0-1.51171875l1.96875-1.1953125l1.03125-2.765625l2.28515625,0l0,2.7890625l3.66796875,0l0,2.68359375l-3.66796875,0l0,6.31640625q0,0.76171875,0.427734375,1.125t1.130859375,0.36328125z M132.08810058594,38.5859375q-1.13671875,0-1.78125,0.720703125t-0.73828125,2.044921875l5.015625,0q-0.0234375-1.32421875-0.69140625-2.044921875t-1.8046875-0.720703125z M132.59200683594,49.625q-3.1640625,0-4.9453125-1.74609375t-1.78125-4.9453125q0-3.29296875,1.646484375-5.091796875t4.552734375-1.798828125q2.77734375,0,4.32421875,1.58203125t1.546875,4.37109375l0,1.734375l-8.44921875,0q0.05859375,1.5234375,0.90234375,2.37890625t2.3671875,0.85546875q1.18359375,0,2.23828125-0.24609375t2.203125-0.78515625l0,2.765625q-0.9375,0.46875-2.00390625,0.697265625t-2.6015625,0.228515625z M146.64009277344,49.625q-2.30859375,0-3.626953125-1.79296875t-1.318359375-4.96875q0-3.22265625,1.341796875-5.021484375t3.697265625-1.798828125q2.47265625,0,3.7734375,1.921875l0.1171875,0q-0.26953125-1.46484375-0.26953125-2.61328125l0-4.1953125l3.5859375,0l0,18.234375l-2.7421875,0l-0.69140625-1.69921875l-0.15234375,0q-1.21875,1.93359375-3.71484375,1.93359375z M147.89399902344,46.77734375q1.37109375,0,2.009765625-0.796875t0.697265625-2.70703125l0-0.38671875q0-2.109375-0.650390625-3.0234375t-2.115234375-0.9140625q-1.1953125,0-1.857421875,1.013671875t-0.662109375,2.947265625t0.66796875,2.900390625t1.91015625,0.966796875z M174.74798339844,49.390625l-4.125-13.44140625l-0.10546875,0q0.22265625,4.1015625,0.22265625,5.47265625l0,7.96875l-3.24609375,0l0-17.1328125l4.9453125,0l4.0546875,13.1015625l0.0703125,0l4.30078125-13.1015625l4.9453125,0l0,17.1328125l-3.38671875,0l0-8.109375q0-0.57421875,0.017578125-1.32421875t0.158203125-3.984375l-0.10546875,0l-4.41796875,13.41796875l-3.328125,0z M194.33903808594,42.81640625q0,1.9453125,0.638671875,2.94140625t2.080078125,0.99609375q1.4296875,0,2.056640625-0.990234375t0.626953125-2.947265625q0-1.9453125-0.6328125-2.91796875t-2.07421875-0.97265625q-1.4296875,0-2.0625,0.966796875t-0.6328125,2.923828125z M203.39763183594,42.81640625q0,3.19921875-1.6875,5.00390625t-4.69921875,1.8046875q-1.88671875,0-3.328125-0.826171875t-2.21484375-2.373046875t-0.7734375-3.609375q0-3.2109375,1.67578125-4.9921875t4.7109375-1.78125q1.88671875,0,3.328125,0.8203125t2.21484375,2.35546875t0.7734375,3.59765625z M211.11759277344,49.390625l-4.9921875-13.1015625l3.73828125,0l2.53125,7.46484375q0.421875,1.41796875,0.52734375,2.68359375l0.0703125,0q0.05859375-1.125,0.52734375-2.68359375l2.51953125-7.46484375l3.73828125,0l-4.9921875,13.1015625l-3.66796875,0z M223.15005371094,32.90234375q0-1.74609375,1.9453125-1.74609375t1.9453125,1.74609375q0,0.83203125-0.486328125,1.294921875t-1.458984375,0.462890625q-1.9453125,0-1.9453125-1.7578125z M226.87661621094,49.390625l-3.57421875,0l0-13.1015625l3.57421875,0l0,13.1015625z M237.70204589844,38.5859375q-1.13671875,0-1.78125,0.720703125t-0.73828125,2.044921875l5.015625,0q-0.0234375-1.32421875-0.69140625-2.044921875t-1.8046875-0.720703125z M238.20595214844,49.625q-3.1640625,0-4.9453125-1.74609375t-1.78125-4.9453125q0-3.29296875,1.646484375-5.091796875t4.552734375-1.798828125q2.77734375,0,4.32421875,1.58203125t1.546875,4.37109375l0,1.734375l-8.44921875,0q0.05859375,1.5234375,0.90234375,2.37890625t2.3671875,0.85546875q1.18359375,0,2.23828125-0.24609375t2.203125-0.78515625l0,2.765625q-0.9375,0.46875-2.00390625,0.697265625t-2.6015625,0.228515625z M257.24622558594,45.5q0,2.015625-1.400390625,3.0703125t-4.189453125,1.0546875q-1.4296875,0-2.4375-0.193359375t-1.88671875-0.568359375l0-2.953125q0.99609375,0.46875,2.244140625,0.78515625t2.197265625,0.31640625q1.9453125,0,1.9453125-1.125q0-0.421875-0.2578125-0.685546875t-0.890625-0.59765625t-1.6875-0.779296875q-1.51171875-0.6328125-2.220703125-1.171875t-1.03125-1.236328125t-0.322265625-1.716796875q0-1.74609375,1.353515625-2.701171875t3.837890625-0.955078125q2.3671875,0,4.60546875,1.03125l-1.078125,2.578125q-0.984375-0.421875-1.83984375-0.69140625t-1.74609375-0.26953125q-1.58203125,0-1.58203125,0.85546875q0,0.48046875,0.509765625,0.83203125t2.232421875,1.04296875q1.53515625,0.62109375,2.25,1.16015625t1.0546875,1.2421875t0.33984375,1.67578125z"/></svg>
